<svg xmlns="http://www.w3.org/2000/svg" xmlns:xlink="http://www.w3.org/1999/xlink" version="1.1" id="Laag_1" x="0px" y="0px" viewBox="0 0 1417.3 1417.3" style="enable-background:new 0 0 1417.3 1417.3;" xml:space="preserve">
<style type="text/css">
	.st0{fill:#D8BC8F;}
</style>
<g>
	<g>
		<path d="M448.5,304.2v190.3h-56V304.2h-23.9v-52.3h23.9V163h56v88.9h43.6v52.3H448.5z"/>
		<path d="M540.4,73.8h56v198.2c19.9-17.9,41.9-26.9,66-26.9c27.4,0,49.3,8.9,65.8,26.6c13.9,15.4,20.9,40.1,20.9,74v148.7h-56V351    c0-19.4-3.4-33.5-10.3-42.2c-6.9-8.7-18-13.1-33.2-13.1c-19.6,0-33.4,6.1-41.4,18.2c-7.8,12.3-11.7,33.4-11.7,63.2v117.3h-56V73.8    z"/>
		<path d="M1041,386.4H867.2c1.5,19.9,8,35.8,19.4,47.6c11.5,11.6,26.1,17.4,44.1,17.4c13.9,0,25.5-3.3,34.6-10    c9-6.6,19.2-18.9,30.6-36.9l47.3,26.4c-7.3,12.5-15,23.1-23.2,32c-8.1,8.9-16.9,16.2-26.1,21.9c-9.3,5.7-19.4,9.9-30.1,12.6    c-10.8,2.6-22.5,4-35.1,4c-36.2,0-65.3-11.6-87.2-34.9c-21.9-23.4-32.9-54.5-32.9-93.1c0-38.3,10.6-69.4,31.9-93.1    c21.4-23.4,49.8-35.1,85.2-35.1c35.7,0,63.9,11.4,84.7,34.1c20.6,22.6,30.9,53.9,30.9,93.9L1041,386.4z M983.5,340.6    c-7.8-29.9-26.6-44.8-56.5-44.8c-6.8,0-13.2,1-19.2,3.1c-6,2.1-11.4,5.1-16.3,9c-4.9,3.9-9.1,8.6-12.6,14.1    c-3.5,5.5-6.1,11.7-8,18.7H983.5z"/>
		<path class="st0" d="M110.4,469.6v206.2c22.4-23.2,47.8-34.9,76.2-34.9c32.7,0,59.9,12.2,81.7,36.6c21.7,24.2,32.6,54.5,32.6,90.6    c0,37.4-11,68.2-32.9,92.6c-21.7,24.2-49.2,36.4-82.4,36.4c-28.1,0-53.1-10.8-75.2-32.4v25.4h-56V469.6H110.4z M243.6,770.7    c0-23.2-6.3-42.2-18.9-56.8c-12.8-14.9-28.8-22.4-48.1-22.4c-20.6,0-37.3,7.2-50.3,21.7c-12.8,14.3-19.2,32.9-19.2,55.8    c0,23.6,6.3,42.4,18.9,56.5c12.6,14.4,29.2,21.7,49.8,21.7c19.4,0,35.5-7.2,48.3-21.7C237.1,810.9,243.6,792.6,243.6,770.7z"/>
		<path d="M360.1,647.6h56v21.7c10.3-10.8,19.4-18.2,27.4-22.2c8.1-4.1,17.8-6.2,28.9-6.2c14.8,0,30.2,4.8,46.3,14.4l-25.6,51.3    c-10.6-7.6-21-11.5-31.1-11.5c-30.6,0-45.8,23.1-45.8,69.2v125.8h-56V647.6z"/>
		<path d="M726.2,647.6h56.3v242.6h-56.3v-25.4c-23.1,21.6-47.9,32.4-74.5,32.4c-33.5,0-61.3-12.1-83.2-36.4    c-21.7-24.7-32.6-55.6-32.6-92.6c0-36.4,10.9-66.7,32.6-90.9c21.8-24.2,49-36.4,81.7-36.4c28.2,0,53.6,11.6,76,34.9V647.6z     M593.2,768.2c0,23.3,6.2,42.2,18.7,56.8c12.8,14.8,28.9,22.2,48.3,22.2c20.8,0,37.5-7.1,50.3-21.4c12.8-14.8,19.2-33.5,19.2-56.3    c0-22.7-6.4-41.5-19.2-56.3c-12.8-14.4-29.4-21.7-49.8-21.7c-19.3,0-35.4,7.3-48.3,21.9C599.6,728.2,593.2,746.4,593.2,768.2z"/>
		<path d="M853.2,647.6h56.3v22.4c19.6-19.4,41.7-29.1,66.3-29.1c28.2,0,50.2,8.9,66,26.6c13.6,15.1,20.4,39.8,20.4,74v148.7h-56.3    V754.7c0-23.9-3.3-40.4-10-49.6c-6.5-9.3-18.3-13.9-35.4-13.9c-18.6,0-31.8,6.2-39.6,18.4c-7.6,12.1-11.5,33.3-11.5,63.5v117    h-56.3V647.6z"/>
		<path d="M1311.7,469.6h56.3v420.6h-56.3v-25.4c-22.1,21.6-47.1,32.4-75,32.4c-33.2,0-60.8-12.1-82.7-36.4    c-21.7-24.7-32.6-55.6-32.6-92.6c0-36.2,10.9-66.4,32.6-90.6c21.6-24.4,48.7-36.6,81.4-36.6c28.4,0,53.8,11.6,76.2,34.9V469.6z     M1178.7,768.2c0,23.3,6.2,42.2,18.7,56.8c12.8,14.8,28.9,22.2,48.3,22.2c20.8,0,37.5-7.1,50.3-21.4    c12.8-14.8,19.2-33.5,19.2-56.3c0-22.7-6.4-41.5-19.2-56.3c-12.8-14.4-29.4-21.7-49.8-21.7c-19.3,0-35.4,7.3-48.3,21.9    C1185.1,728.2,1178.7,746.4,1178.7,768.2z"/>
		<path d="M205.6,1135.3l-46.3,24.6c-7.3-14.9-16.4-22.4-27.1-22.4c-5.1,0-9.6,1.7-13.2,5.1c-3.6,3.4-5.5,7.8-5.5,13.1    c0,9.3,10.8,18.5,32.4,27.6c29.7,12.8,49.7,24.6,60,35.4c10.3,10.8,15.4,25.3,15.4,43.6c0,23.4-8.6,43-25.9,58.8    c-16.8,14.9-37,22.4-60.8,22.4c-40.7,0-69.5-19.8-86.4-59.5l47.8-22.2c6.6,11.6,11.7,19,15.2,22.2c6.8,6.3,14.9,9.5,24.4,9.5    c18.9,0,28.4-8.6,28.4-25.9c0-10-7.3-19.3-21.9-27.9c-5.6-2.8-11.3-5.6-16.9-8.2c-5.6-2.6-11.4-5.4-17.2-8.2    c-16.3-8-27.7-15.9-34.4-23.9c-8.5-10.1-12.7-23.2-12.7-39.1c0-21.1,7.2-38.5,21.7-52.3c14.8-13.8,32.7-20.7,53.8-20.7    C167.4,1087.2,190.5,1103.2,205.6,1135.3z"/>
		<path d="M329.4,1146.2v190.3h-56v-190.3h-23.9v-52.3h23.9V1005h56v88.9H373v52.3H329.4z"/>
		<path d="M467.1,1093.9v139.2c0,40.2,15.8,60.3,47.6,60.3c31.7,0,47.6-20.1,47.6-60.3v-139.2h56v140.5c0,19.4-2.4,36.2-7.2,50.3    c-4.6,12.6-12.7,24-24.2,34.1c-18.9,16.4-43,24.7-72.2,24.7c-29.1,0-53.1-8.2-72-24.7c-11.6-10.1-19.9-21.5-24.7-34.1    c-4.6-11.3-7-28-7-50.3v-140.5H467.1z"/>
		<path d="M867.8,915.9h56.3v420.6h-56.3v-25.4c-22.1,21.6-47.1,32.4-75,32.4c-33.2,0-60.8-12.1-82.7-36.4    c-21.7-24.7-32.6-55.6-32.6-92.6c0-36.2,10.9-66.4,32.6-90.6c21.6-24.4,48.7-36.6,81.4-36.6c28.4,0,53.8,11.6,76.2,34.9V915.9z     M734.8,1214.5c0,23.3,6.2,42.2,18.7,56.8c12.8,14.8,28.9,22.2,48.3,22.2c20.8,0,37.5-7.1,50.3-21.4    c12.8-14.8,19.2-33.5,19.2-56.3c0-22.7-6.4-41.5-19.2-56.3c-12.8-14.4-29.4-21.7-49.8-21.7c-19.3,0-35.4,7.3-48.3,21.9    C741.2,1174.5,734.8,1192.7,734.8,1214.5z"/>
		<path d="M986.3,993.1c0-9.8,3.6-18.3,10.7-25.4s15.7-10.7,25.6-10.7c10.1,0,18.8,3.6,25.9,10.7c7.1,7,10.7,15.5,10.7,25.6    c0,10.1-3.6,18.8-10.7,25.9c-7,7.1-15.5,10.7-25.6,10.7c-10.1,0-18.8-3.6-25.9-10.7S986.3,1003.4,986.3,993.1z M1050.8,1093.9    v242.6h-56v-242.6H1050.8z"/>
		<path d="M1110.4,1213.5c0-35,12.5-64.8,37.6-89.4c25.1-24.6,55.6-36.9,91.6-36.9c36.2,0,66.9,12.4,92.1,37.1    c24.9,24.7,37.4,55.1,37.4,91.1c0,36.4-12.5,66.8-37.6,91.4c-25.2,24.4-56.2,36.6-92.9,36.6c-36.4,0-66.8-12.5-91.4-37.4    C1122.6,1281.5,1110.4,1250.7,1110.4,1213.5z M1167.6,1214.5c0,24.2,6.5,43.4,19.4,57.5c13.3,14.3,30.8,21.4,52.6,21.4    c21.9,0,39.4-7.1,52.6-21.2s19.7-33,19.7-56.5c0-23.6-6.6-42.4-19.7-56.5c-13.3-14.3-30.8-21.4-52.6-21.4    c-21.4,0-38.8,7.1-52,21.4C1174.3,1173.5,1167.6,1191.9,1167.6,1214.5z"/>
	</g>
</g>
</svg>